<?xml version="1.0" encoding="UTF-8" standalone="no"?>
<!-- Created with Inkscape (http://www.inkscape.org/) -->

<svg
   width="1080"
   height="1080"
   viewBox="0 0 1080 1080"
   version="1.1"
   id="svg1"
   xml:space="preserve"
   inkscape:version="1.3 (0e150ed6c4, 2023-07-21)"
   sodipodi:docname="documento-2.svg"
   xmlns:inkscape="http://www.inkscape.org/namespaces/inkscape"
   xmlns:sodipodi="http://sodipodi.sourceforge.net/DTD/sodipodi-0.dtd"
   xmlns="http://www.w3.org/2000/svg"
   xmlns:svg="http://www.w3.org/2000/svg"><sodipodi:namedview
     id="namedview1"
     pagecolor="#505050"
     bordercolor="#eeeeee"
     borderopacity="1"
     inkscape:showpageshadow="0"
     inkscape:pageopacity="0"
     inkscape:pagecheckerboard="0"
     inkscape:deskcolor="#505050"
     inkscape:document-units="px"
     inkscape:zoom="0.26827207"
     inkscape:cx="-635.54882"
     inkscape:cy="139.78347"
     inkscape:window-width="1920"
     inkscape:window-height="1017"
     inkscape:window-x="-8"
     inkscape:window-y="-8"
     inkscape:window-maximized="1"
     inkscape:current-layer="layer1" /><defs
     id="defs1"><rect
       x="-599.64044"
       y="786.78101"
       width="75.119797"
       height="94.888168"
       id="rect13" /><rect
       x="-599.64044"
       y="786.78101"
       width="75.119797"
       height="94.888168"
       id="rect14" /><rect
       x="-599.64044"
       y="786.78101"
       width="75.119797"
       height="94.888168"
       id="rect16" /><rect
       x="-599.64044"
       y="786.78101"
       width="75.119797"
       height="94.888168"
       id="rect17" /><rect
       x="-599.64044"
       y="786.78101"
       width="75.119797"
       height="94.888168"
       id="rect18" /></defs><g
     inkscape:label="Camada 1"
     inkscape:groupmode="layer"
     id="layer1"><rect
       style="font-variation-settings:'wght' 400;fill:#000080;stroke:#000000;stroke-width:0;stroke-linejoin:bevel;stroke-dasharray:none;stroke-opacity:0.0149573;paint-order:stroke markers fill"
       id="rect85"
       width="1080"
       height="1080"
       x="0"
       y="0"
       ry="10.225641" /><g
       id="g70"
       transform="translate(257.3492,167.37218)"
       style="fill:#ffffff"><g
         id="g37"
         transform="matrix(-0.34350262,-0.31254599,0.27180628,-0.37656393,263.45452,666.2871)"
         style="fill:#ffffff"><rect
           style="fill:#ffffff;fill-opacity:1;stroke:#000000;stroke-width:0;stroke-linejoin:bevel;stroke-dasharray:none;stroke-opacity:0.0149573;paint-order:stroke markers fill"
           id="rect34"
           width="23.429176"
           height="262.40677"
           x="200.9052"
           y="468.58353" /><rect
           style="fill:#ffffff;fill-opacity:1;stroke:#000000;stroke-width:0;stroke-linejoin:bevel;stroke-dasharray:none;stroke-opacity:0.0149573;paint-order:stroke markers fill"
           id="rect35"
           width="23.429176"
           height="262.40677"
           x="-191.67174"
           y="733.4201"
           transform="rotate(-30)" /><circle
           style="fill:#ffffff;fill-opacity:1;stroke:#000000;stroke-width:0;stroke-linejoin:bevel;stroke-dasharray:none;stroke-opacity:0.0149573;paint-order:stroke markers fill"
           id="path35-8"
           cx="359.63785"
           cy="985.19684"
           r="45.686893" /></g><g
         id="g67"
         transform="matrix(-0.34350262,-0.31254599,0.27180628,-0.37656393,232.06738,637.72859)"
         style="fill:#ffffff"><rect
           style="fill:#ffffff;fill-opacity:1;stroke:#000000;stroke-width:0;stroke-linejoin:bevel;stroke-dasharray:none;stroke-opacity:0.0149573;paint-order:stroke markers fill"
           id="rect66"
           width="23.429176"
           height="262.40677"
           x="200.9052"
           y="468.58353" /><rect
           style="fill:#ffffff;fill-opacity:1;stroke:#000000;stroke-width:0;stroke-linejoin:bevel;stroke-dasharray:none;stroke-opacity:0.0149573;paint-order:stroke markers fill"
           id="rect67"
           width="23.429176"
           height="262.40677"
           x="-191.67174"
           y="733.4201"
           transform="rotate(-30)" /><circle
           style="fill:#ffffff;fill-opacity:1;stroke:#000000;stroke-width:0;stroke-linejoin:bevel;stroke-dasharray:none;stroke-opacity:0.0149573;paint-order:stroke markers fill"
           id="circle67"
           cx="359.63785"
           cy="985.19684"
           r="45.686893" /></g><g
         id="g69"
         transform="matrix(-0.34350262,-0.31254599,0.27180628,-0.37656393,200.68024,609.17008)"
         style="fill:#ffffff"><rect
           style="fill:#ffffff;fill-opacity:1;stroke:#000000;stroke-width:0;stroke-linejoin:bevel;stroke-dasharray:none;stroke-opacity:0.0149573;paint-order:stroke markers fill"
           id="rect68"
           width="23.429176"
           height="262.40677"
           x="200.9052"
           y="468.58353" /><rect
           style="fill:#ffffff;fill-opacity:1;stroke:#000000;stroke-width:0;stroke-linejoin:bevel;stroke-dasharray:none;stroke-opacity:0.0149573;paint-order:stroke markers fill"
           id="rect69"
           width="23.429176"
           height="262.40677"
           x="-191.67174"
           y="733.4201"
           transform="rotate(-30)" /><circle
           style="fill:#ffffff;fill-opacity:1;stroke:#000000;stroke-width:0;stroke-linejoin:bevel;stroke-dasharray:none;stroke-opacity:0.0149573;paint-order:stroke markers fill"
           id="circle69"
           cx="359.63785"
           cy="985.19684"
           r="45.686893" /></g></g><path
       id="rect1"
       style="fill:#000000;stroke:#000000;stroke-width:0;stroke-linejoin:bevel;stroke-dasharray:none;stroke-opacity:0.0149573;paint-order:stroke markers fill"
       d="m 188.01803,530.11542 c -24.80476,0 -44.77379,19.96904 -44.77379,44.77379 v 197.41226 c 0,24.80476 19.96903,44.7748 44.77379,44.7748 h 349.3721 c 24.80475,0 44.77479,-19.97004 44.77479,-44.7748 V 574.88921 c 0,-24.80475 -19.97004,-44.77379 -44.77479,-44.77379 z m 5.76588,28.83141 h 337.84034 c 8.26825,0 14.92493,6.65668 14.92493,14.92493 v 199.44716 c 0,8.26826 -6.65668,14.92494 -14.92493,14.92494 H 193.78391 c -8.26825,0 -14.92393,-6.65668 -14.92393,-14.92494 V 573.87176 c 0,-8.26825 6.65568,-14.92493 14.92393,-14.92493 z" /><g
       id="path3"
       transform="matrix(0.71873346,0,0,0.71873346,-17.419093,341.44528)"><path
         style="color:#000000;fill:#000000;fill-opacity:0.0149573;stroke-linejoin:bevel;-inkscape-stroke:none;paint-order:stroke markers fill"
         d="m 291.48581,616.77045 c -35.42849,0 -63.95021,26.22899 -63.95021,58.80953 v 259.29728 c 0,32.58059 28.52172,58.81088 63.95021,58.81088 h 499.00666 c 35.42848,0 63.95165,-26.23029 63.95165,-58.81088 V 675.57998 c 0,-32.58054 -28.52317,-58.80953 -63.95165,-58.80953 z m 8.23538,37.86951 h 482.5359 c 11.8095,0 21.31722,8.74343 21.31722,19.60361 v 261.97009 c 0,10.86018 -9.50772,19.60363 -21.31722,19.60363 h -482.5359 c -11.80949,0 -21.31578,-8.74345 -21.31578,-19.60363 V 674.24357 c 0,-10.86018 9.50629,-19.60361 21.31578,-19.60361 z"
         id="path4" /><path
         style="color:#000000;fill:#000000;stroke-linejoin:bevel;-inkscape-stroke:none;paint-order:stroke markers fill"
         d="m 266.44588,633.90304 c -35.42853,0 -46.15472,31.51825 -63.95021,58.80953 l -88.29871,135.41551 c -17.795508,27.29133 28.52168,58.81088 63.95021,58.81088 H 682.4254 c 35.42852,0 46.9217,-31.03539 63.95165,-58.81088 l 83.02714,-135.41551 c 17.02992,-27.77544 -28.52313,-58.80953 -63.95165,-58.80953 z m 8.23538,37.86951 h 482.5359 c 11.80951,0 26.91337,10.29626 21.31722,19.60361 l -83.02714,138.08832 c -5.59615,9.30736 -9.50771,19.60363 -21.31722,19.60363 H 186.38255 c -11.8095,0 -27.16634,-10.45406 -21.31578,-19.60363 l 88.29871,-138.08832 c 5.85057,-9.14957 9.50628,-19.60361 21.31578,-19.60361 z"
         id="path5"
         sodipodi:nodetypes="ssssssssssssssssss" /></g><path
       id="rect5"
       style="fill:#ff0000;stroke:#000000;stroke-width:0;stroke-linejoin:bevel;stroke-opacity:0.0149573;paint-order:stroke markers fill"
       d="m 172.24506,861.35566 22.88647,-0.59379 c 6.91923,-0.17951 10.83653,6.94337 7.66851,13.09736 l -5.90512,11.47097 c -3.16802,6.15399 -5.57223,12.49377 -12.49377,12.49377 h -18.23416 c -6.92155,0 -22.98071,1.60967 -14.13206,-12.66344 l 7.80115,-12.58348 c 4.1604,-6.71083 5.48974,-11.04188 12.40898,-11.22139 z"
       sodipodi:nodetypes="sssssssss" /><path
       id="path6"
       style="fill:#ff0000;stroke:#000000;stroke-width:0;stroke-linejoin:bevel;stroke-opacity:0.0149573;paint-order:stroke markers fill"
       d="m 226.68446,861.35566 22.88647,-0.59379 c 6.91924,-0.17951 10.83654,6.94337 7.66851,13.09736 l -5.90512,11.47097 c -3.16801,6.15399 -5.57222,12.49377 -12.49376,12.49377 h -18.23417 c -6.92155,0 -22.9807,1.60967 -14.13206,-12.66344 l 7.80116,-12.58348 c 4.1604,-6.71083 5.48974,-11.04188 12.40897,-11.22139 z"
       sodipodi:nodetypes="sssssssss" /><path
       id="path7"
       style="fill:#ff0000;stroke:#000000;stroke-width:0;stroke-linejoin:bevel;stroke-opacity:0.0149573;paint-order:stroke markers fill"
       d="m 284.81468,861.35566 22.88647,-0.59379 c 6.91924,-0.17951 10.83653,6.94337 7.66851,13.09736 l -5.90512,11.47097 c -3.16801,6.15399 -5.57222,12.49377 -12.49376,12.49377 h -18.23417 c -6.92155,0 -22.9807,1.60967 -14.13206,-12.66344 l 7.80116,-12.58348 c 4.1604,-6.71083 5.48974,-11.04188 12.40897,-11.22139 z"
       sodipodi:nodetypes="sssssssss" /><path
       id="path8"
       style="fill:#ff0000;stroke:#000000;stroke-width:0;stroke-linejoin:bevel;stroke-opacity:0.0149573;paint-order:stroke markers fill"
       d="m 342.9449,861.35566 22.88647,-0.59379 c 6.91923,-0.17951 10.83653,6.94337 7.66851,13.09736 l -5.90512,11.47097 c -3.16801,6.15399 -5.57222,12.49377 -12.49377,12.49377 h -18.23416 c -6.92155,0 -22.9807,1.60967 -14.13206,-12.66344 l 7.80116,-12.58348 c 4.1604,-6.71083 5.48974,-11.04188 12.40897,-11.22139 z"
       sodipodi:nodetypes="sssssssss" /><path
       id="path9"
       style="fill:#ff0000;stroke:#000000;stroke-width:0;stroke-linejoin:bevel;stroke-opacity:0.0149573;paint-order:stroke markers fill"
       d="m 401.07512,861.35566 22.88647,-0.59379 c 6.91923,-0.17951 10.83653,6.94337 7.66851,13.09736 l -5.90512,11.47097 c -3.16802,6.15399 -5.57222,12.49377 -12.49377,12.49377 h -18.23416 c -6.92155,0 -22.98071,1.60967 -14.13206,-12.66344 l 7.80116,-12.58348 c 4.16039,-6.71083 5.48973,-11.04188 12.40897,-11.22139 z"
       sodipodi:nodetypes="sssssssss" /><path
       id="path10"
       style="fill:#ff0000;stroke:#000000;stroke-width:0;stroke-linejoin:bevel;stroke-opacity:0.0149573;paint-order:stroke markers fill"
       d="m 459.20534,861.35566 22.88647,-0.59379 c 6.91923,-0.17951 10.83653,6.94337 7.66851,13.09736 l -5.90512,11.47097 c -3.16802,6.15399 -5.57223,12.49377 -12.49377,12.49377 h -18.23416 c -6.92155,0 -22.98071,1.60967 -14.13206,-12.66344 l 7.80115,-12.58348 c 4.1604,-6.71083 5.48974,-11.04188 12.40898,-11.22139 z"
       sodipodi:nodetypes="sssssssss" /><path
       d="m 178.20742,892.38209 4.21946,-0.009 -5.74434,-14.47576 5.68794,-11.66253 -4.10745,0.009 -5.27791,11.32558 -0.0746,1.4e-4 -0.0244,-11.31415 -4.10744,0.009 0.0564,26.1383 4.10744,-0.009 -0.0174,-8.02819 1.26442,-2.39252 z"
       id="path18"
       style="-inkscape-font-specification:'Bebas Neue, Normal';stroke-width:0.700135"
       aria-label="K" /><text
       xml:space="preserve"
       id="text13"
       style="font-style:normal;font-variant:normal;font-weight:normal;font-stretch:normal;font-size:53.3333px;line-height:1.25;font-family:'Bebas Neue';-inkscape-font-specification:'Bebas Neue, Normal';font-variant-ligatures:normal;font-variant-caps:normal;font-variant-numeric:normal;font-variant-east-asian:normal;white-space:pre;shape-inside:url(#rect13);display:inline"
       transform="matrix(0.70013514,0,0,0.70013514,644.4638,308.86155)"><tspan
         x="-599.64062"
         y="833.44789"
         id="tspan1">A</tspan></text><text
       xml:space="preserve"
       id="text14"
       style="font-style:normal;font-variant:normal;font-weight:normal;font-stretch:normal;font-size:53.3333px;line-height:1.25;font-family:'Bebas Neue';-inkscape-font-specification:'Bebas Neue, Normal';font-variant-ligatures:normal;font-variant-caps:normal;font-variant-numeric:normal;font-variant-east-asian:normal;white-space:pre;shape-inside:url(#rect14);display:inline"
       transform="matrix(0.70013514,0,0,0.70013514,700.41253,308.86155)"><tspan
         x="-599.64062"
         y="833.44789"
         id="tspan2">N</tspan></text><text
       xml:space="preserve"
       id="text16"
       style="font-style:normal;font-variant:normal;font-weight:normal;font-stretch:normal;font-size:53.3333px;line-height:1.25;font-family:'Bebas Neue';-inkscape-font-specification:'Bebas Neue, Normal';font-variant-ligatures:normal;font-variant-caps:normal;font-variant-numeric:normal;font-variant-east-asian:normal;white-space:pre;shape-inside:url(#rect16);display:inline"
       transform="matrix(0.70013514,0,0,0.70013514,760.11109,308.86155)"><tspan
         x="-599.64062"
         y="833.44789"
         id="tspan3">E</tspan></text><text
       xml:space="preserve"
       id="text17"
       style="font-style:normal;font-variant:normal;font-weight:normal;font-stretch:normal;font-size:53.3333px;line-height:1.25;font-family:'Bebas Neue';-inkscape-font-specification:'Bebas Neue, Normal';font-variant-ligatures:normal;font-variant-caps:normal;font-variant-numeric:normal;font-variant-east-asian:normal;white-space:pre;shape-inside:url(#rect17);display:inline"
       transform="matrix(0.70013514,0,0,0.70013514,818.3533,308.86155)"><tspan
         x="-599.64062"
         y="833.44789"
         id="tspan4">O</tspan></text><text
       xml:space="preserve"
       id="text18"
       style="font-style:normal;font-variant:normal;font-weight:normal;font-stretch:normal;font-size:53.3333px;line-height:1.25;font-family:'Bebas Neue';-inkscape-font-specification:'Bebas Neue, Normal';font-variant-ligatures:normal;font-variant-caps:normal;font-variant-numeric:normal;font-variant-east-asian:normal;white-space:pre;shape-inside:url(#rect18);display:inline"
       transform="matrix(0.70013514,0,0,0.70013514,877.56639,308.86155)"><tspan
         x="-599.64062"
         y="833.44789"
         id="tspan5">T</tspan></text><g
       id="g27"
       transform="translate(262.71764,-295.20763)"><ellipse
         style="fill:#ffffff;stroke:#000000;stroke-width:0;stroke-linejoin:bevel;stroke-dasharray:none;stroke-opacity:0.0149573;paint-order:stroke markers fill"
         id="path19"
         cx="389.53668"
         cy="426.3378"
         rx="84.44487"
         ry="75.119797" /><ellipse
         style="fill:#ffffff;stroke:#000000;stroke-width:0;stroke-linejoin:bevel;stroke-dasharray:none;stroke-opacity:0.0149573;paint-order:stroke markers fill"
         id="ellipse19"
         cx="389.53668"
         cy="426.3378"
         rx="84.44487"
         ry="75.119797" /><ellipse
         style="fill:#ffffff;stroke:#000000;stroke-width:0;stroke-linejoin:bevel;stroke-dasharray:none;stroke-opacity:0.0149573;paint-order:stroke markers fill"
         id="ellipse20"
         cx="479.20462"
         cy="392.07263"
         rx="84.44487"
         ry="75.119797" /><ellipse
         style="fill:#ffffff;stroke:#000000;stroke-width:0;stroke-linejoin:bevel;stroke-dasharray:none;stroke-opacity:0.0149573;paint-order:stroke markers fill"
         id="ellipse21"
         cx="478.33899"
         cy="493.20712"
         rx="84.44487"
         ry="75.119797" /><ellipse
         style="fill:#ffffff;stroke:#000000;stroke-width:0;stroke-linejoin:bevel;stroke-dasharray:none;stroke-opacity:0.0149573;paint-order:stroke markers fill"
         id="ellipse22"
         cx="610.62714"
         cy="392.07263"
         rx="84.44487"
         ry="75.119797" /><ellipse
         style="fill:#ffffff;stroke:#000000;stroke-width:0;stroke-linejoin:bevel;stroke-dasharray:none;stroke-opacity:0.0149573;paint-order:stroke markers fill"
         id="ellipse23"
         cx="578.31696"
         cy="493.20712"
         rx="84.44487"
         ry="75.119797" /><ellipse
         style="fill:#ffffff;stroke:#000000;stroke-width:0;stroke-linejoin:bevel;stroke-dasharray:none;stroke-opacity:0.0149573;paint-order:stroke markers fill"
         id="ellipse24"
         cx="695.07202"
         cy="436.22198"
         rx="84.44487"
         ry="75.119797" /><ellipse
         style="fill:#ffffff;stroke:#000000;stroke-width:0;stroke-linejoin:bevel;stroke-dasharray:none;stroke-opacity:0.0149573;paint-order:stroke markers fill"
         id="ellipse25"
         cx="695.07202"
         cy="436.22198"
         rx="84.44487"
         ry="75.119797" /><ellipse
         style="fill:#ffffff;stroke:#000000;stroke-width:0;stroke-linejoin:bevel;stroke-dasharray:none;stroke-opacity:0.0149573;paint-order:stroke markers fill"
         id="ellipse26"
         cx="389.53668"
         cy="501.45761"
         rx="55.555836"
         ry="49.420921" /><ellipse
         style="fill:#ffffff;stroke:#000000;stroke-width:0;stroke-linejoin:bevel;stroke-dasharray:none;stroke-opacity:0.0149573;paint-order:stroke markers fill"
         id="ellipse27"
         cx="669.63989"
         cy="493.20712"
         rx="84.44487"
         ry="75.119797" /></g><text
       xml:space="preserve"
       style="font-style:normal;font-variant:normal;font-weight:normal;font-stretch:normal;font-size:33.3333px;line-height:1.25;font-family:'Bebas Neue';-inkscape-font-specification:'Bebas Neue, Normal ';font-variant-ligatures:normal;font-variant-caps:normal;font-variant-numeric:normal;font-variant-east-asian:normal"
       x="298.99927"
       y="726.35333"
       id="text28"><tspan
         sodipodi:role="line"
         id="tspan28"
         x="298.99927"
         y="726.35333">ENVIANDO...</tspan></text><rect
       style="fill:#000000;stroke:#000000;stroke-width:0;stroke-linejoin:bevel;stroke-dasharray:none;stroke-opacity:0.0149573;paint-order:stroke markers fill"
       id="rect28"
       width="179.11346"
       height="17.132591"
       x="265.67358"
       y="-679.18719"
       ry="4.802319"
       transform="scale(1,-1)" /><rect
       style="fill:#00ff00;stroke:#000000;stroke-width:0;stroke-linejoin:bevel;stroke-dasharray:none;stroke-opacity:0.0149573;paint-order:stroke markers fill"
       id="rect29"
       width="129.79237"
       height="17.132591"
       x="265.20764"
       y="-679.18719"
       ry="4.802319"
       transform="scale(1,-1)" /><g
       id="g35"
       transform="matrix(1.4583439,0,0,1.183923,-88.983255,-107.15812)"><path
         style="fill:none;stroke:#000000;stroke-width:1px;stroke-linecap:butt;stroke-linejoin:miter;stroke-opacity:1"
         d="m 292.03096,601.76782 c 0.19414,-0.11649 0.39819,-0.21786 0.58243,-0.34946 0.38409,-0.27435 0.11292,-0.15057 0.34946,-0.46594 0.74563,-0.99418 -0.27969,0.52823 0.46594,-0.46595 0.0521,-0.0695 0.0644,-0.16351 0.11649,-0.23297 0.71331,-0.71331 -0.14735,0.19646 0.34946,-0.46595 0.0659,-0.0879 0.16436,-0.14721 0.23297,-0.23297 0.34348,-0.42935 0.1317,-0.21949 0.34946,-0.58243 0.57012,-0.9502 -0.0827,0.14911 0.46594,-0.58243 0.0521,-0.0695 0.0683,-0.16073 0.11649,-0.23297 0.0305,-0.0457 0.0777,-0.0777 0.11648,-0.11649 0.0388,-0.0777 0.0683,-0.16073 0.11649,-0.23297 0.0609,-0.0914 0.17205,-0.1416 0.23297,-0.23297 0.4223,-0.8446 -0.12278,0.18418 0.23298,-0.34946 0.0963,-0.14449 0.14363,-0.31705 0.23297,-0.46595 0.072,-0.12005 0.16094,-0.22941 0.23297,-0.34946 0.0447,-0.0744 0.0551,-0.17158 0.11649,-0.23297 0.0614,-0.0614 0.17158,-0.0551 0.23297,-0.11649 0.29423,-0.29423 0.0448,-0.13428 0.11649,-0.34945 0.0705,-0.21157 0.0997,-0.21619 0.23297,-0.34946 0.0388,-0.0388 0.086,-0.0708 0.11648,-0.11649 0.17856,-0.26784 0.0544,-0.31459 0.23298,-0.58243 0.0609,-0.0914 0.18385,-0.13474 0.23297,-0.23297 0.0174,-0.0347 -0.0174,-0.0818 0,-0.11649 0.0491,-0.0982 0.19824,-0.12878 0.23297,-0.23297 0.0246,-0.0737 -0.0246,-0.1593 0,-0.23297 0.0174,-0.0521 0.086,-0.0708 0.11649,-0.11649 0.22067,0.0133 0.0777,-0.2718 0.11648,-0.34946 0.0246,-0.0491 0.0919,-0.0674 0.11649,-0.11648 0.0174,-0.0347 -0.0174,-0.0818 0,-0.11649 0.0246,-0.0491 0.0919,-0.0674 0.11649,-0.11649 0.0174,-0.0347 -0.0275,-0.089 0,-0.11648 0.0275,-0.0275 0.089,0.0275 0.11648,0 0.0275,-0.0275 -0.0174,-0.0818 0,-0.11649 0.0246,-0.0491 0.0919,-0.0674 0.11649,-0.11649 0.0174,-0.0347 -0.0275,-0.089 0,-0.11648 0.0249,-0.0249 0.40172,0.0214 0.46594,0 0.0824,-0.0275 0.14784,-0.0995 0.23298,-0.11649 0.19037,-0.0381 0.38828,0 0.58243,0 0.31063,0 0.62126,0 0.93189,0 0.69891,0 1.39783,0 2.09675,0 0.2718,0 0.54495,0.027 0.8154,0 0.2732,-0.0273 0.54197,-0.0916 0.81541,-0.11648 0.15467,-0.0141 0.31183,0.0193 0.46594,0 0.15886,-0.0199 0.30709,-0.0966 0.46595,-0.11649 0.15411,-0.0193 0.31063,0 0.46594,0 0.19414,0 0.38979,0.0241 0.58243,0 0.12184,-0.0152 0.22834,-0.0963 0.34946,-0.11649 0.2298,-0.0383 0.46829,0.033 0.69892,0 0.15848,-0.0226 0.30746,-0.0938 0.46594,-0.11648 0.18305,-0.0262 0.60489,0 0.81541,0 0.0777,0 0.15609,0.011 0.23297,0 0.196,-0.028 0.38643,-0.0885 0.58243,-0.11649 0.15375,-0.022 0.31063,0 0.46594,0 0.62338,0 -0.26383,0.0246 0.58244,-0.11649 0.1915,-0.0319 0.39205,0.0381 0.58243,0 0.2408,-0.0482 0.45668,-0.1926 0.69891,-0.23297 0.11491,-0.0191 0.23369,0.0129 0.34946,0 0.23298,-0.0388 0.46595,-0.0777 0.69892,-0.11648 0.0777,-0.0388 0.14874,-0.0954 0.23297,-0.11649 0.15068,-0.0377 0.31527,0.0377 0.46595,0 0.0842,-0.0211 0.14783,-0.0995 0.23297,-0.11649 0.11422,-0.0228 0.23523,0.0229 0.34946,0 0.0851,-0.017 0.14874,-0.0954 0.23297,-0.11648 0.15068,-0.0377 0.3186,0.0491 0.46595,0 0.0521,-0.0174 0.0777,-0.0777 0.11648,-0.11649 0.0777,0 0.15683,0.0152 0.23297,0 0.12041,-0.0241 0.22835,-0.0963 0.34946,-0.11649 0.1149,-0.0192 0.23298,0 0.34946,0 0.0388,0 0.0818,0.0174 0.11649,0 0.0491,-0.0246 0.0674,-0.0919 0.11648,-0.11648 0.0888,-0.0444 0.20592,0.0353 0.23298,0.11648 0.0246,0.0737 0,0.15532 0,0.23298 0,0.23297 0,0.46594 0,0.69891 0,0.73775 0,1.4755 0,2.21324 0,2.36856 0,4.73711 0,7.10566 0,2.64036 0,5.28071 0,7.92106 0,0.85424 0,1.70847 0,2.5627 0,0.42712 0.0284,0.85518 0,1.28135 -0.0106,0.15974 -0.0966,0.30709 -0.11649,0.46595 -0.0385,0.30823 0.0385,0.62365 0,0.93188 -0.0199,0.15886 -0.0966,0.30709 -0.11649,0.46595 -0.0193,0.15412 0.0193,0.31183 0,0.46594 -0.0199,0.15886 -0.0988,0.30683 -0.11648,0.46595 -0.0214,0.19296 0.0214,0.38947 0,0.58243 -0.0177,0.15912 -0.0966,0.30709 -0.11649,0.46595 -0.0385,0.30823 0.0281,0.62253 0,0.93189 -0.0249,0.27343 -0.0862,0.54252 -0.11648,0.8154 -0.009,0.0772 0,0.15531 0,0.23297 0,0.2718 0.0226,0.54454 0,0.8154 -0.0165,0.19731 -0.0946,0.38566 -0.11649,0.58244 -0.0343,0.30873 0.0343,0.62316 0,0.93189 -0.0219,0.19677 -0.0946,0.38565 -0.11649,0.58243 -0.0172,0.15436 0,0.31063 0,0.46594 0,0.31063 0,0.62126 0,0.93189 0,0.15532 0.0141,0.31127 0,0.46595 -0.0249,0.27343 -0.0969,0.54154 -0.11648,0.8154 -0.0277,0.3873 0,0.77657 0,1.16486 0,0.93189 0,1.86378 0,2.79567 0,0.8154 0,1.63081 0,2.44621 0,0.23297 0,0.46595 0,0.69892 0,0.0777 0,0.15531 0,0.23297 0,0.0777 -0.0246,0.1593 0,0.23297 0.0174,0.0521 0.0919,0.0674 0.11648,0.11649 0.0174,0.0347 0,0.0777 0,0.11649 0,0.15531 0,0.31063 0,0.46594 0,0.0777 -0.0245,0.1593 0,0.23297 0.0174,0.0521 0.0991,0.0644 0.11649,0.11649 0.0368,0.11051 0,0.23297 0,0.34946 0,0.2718 0,0.5436 0,0.8154 0,0.0388 0.0275,0.089 0,0.11649 -0.0614,0.0614 -0.15236,0.0842 -0.23297,0.11648 -1.3674,0.54697 -0.45204,0.21336 -1.63081,0.46595 -0.31308,0.0671 -0.61718,0.17396 -0.93189,0.23297 -0.30769,0.0577 -0.62159,0.0751 -0.93189,0.11649 -0.27215,0.0363 -0.54403,0.0747 -0.8154,0.11648 -0.81829,0.1259 -1.61874,0.28051 -2.44621,0.34946 -0.11609,0.01 -0.23298,0 -0.34946,0 -0.50478,0 -1.00955,0 -1.51432,0 -1.04838,0 -2.09676,0 -3.14513,0 -2.91216,0 -5.82431,0 -8.73647,0 -1.04837,0 -2.09675,0 -3.14513,0 -0.0438,0 -0.57952,0.003 -0.58243,0 -0.0274,-0.0274 0,-0.0776 0,-0.11648 0,-0.0777 0,-0.15532 0,-0.23298 0,-0.5436 0,-1.0872 0,-1.6308 0,-1.04838 0,-2.09675 0,-3.14513 0,-0.31063 -0.0207,-0.62195 0,-0.93189 0.0183,-0.27395 0.0969,-0.54154 0.11649,-0.8154 0.0194,-0.27111 -0.0194,-0.5443 0,-0.81541 0.29255,-2.04787 -0.0198,0.41288 0.11649,-1.6308 0.0208,-0.31236 0.10445,-0.61908 0.11648,-0.93189 0.0269,-0.69841 0,-1.39784 0,-2.09676 0,-0.5436 0,-1.0872 0,-1.6308 0,-0.2718 0,-0.54361 0,-0.81541 0,-0.31063 -0.0207,-0.62194 0,-0.93189 0.0183,-0.27395 0.0954,-0.54165 0.11649,-0.8154 0.0179,-0.23229 0,-0.46594 0,-0.69892 0,-0.46594 0,-0.93189 0,-1.39783 0,-1.63081 0,-3.26162 0,-4.89242 0,-1.35901 0,-2.71802 0,-4.07702 0,-0.46595 0,-0.93189 0,-1.39784 0,-0.11648 0,-0.23297 0,-0.34945 0,-0.0777 -0.0128,-0.15638 0,-0.23298 0.0263,-0.15791 0.0938,-0.30746 0.11648,-0.46594 0.0165,-0.11532 0,-0.23297 0,-0.34946 0,-0.38829 0,-0.77658 0,-1.16486 0,-0.15532 -0.0255,-0.31275 0,-0.46595 0.0263,-0.15791 0.0902,-0.30803 0.11649,-0.46594 0.0128,-0.0766 0,-0.15532 0,-0.23297 0,-0.31063 0,-0.62126 0,-0.93189"
         id="path32" /><path
         style="fill:none;stroke:#000000;stroke-width:1px;stroke-linecap:butt;stroke-linejoin:miter;stroke-opacity:1"
         d="m 298.67067,605.49538 c 2.90632,0 -1.0644,0.0447 1.51432,-0.11649 0.38753,-0.0242 0.77658,0 1.16486,0 0.93189,0 1.86378,0 2.79567,0 2.21324,0 4.42648,0 6.63972,0"
         id="path33" /><path
         style="fill:none;stroke:#000000;stroke-width:1px;stroke-linecap:butt;stroke-linejoin:miter;stroke-opacity:1"
         d="m 298.55419,613.99887 c 0.23297,0.11649 0.44762,0.28093 0.69891,0.34946 0.18731,0.0511 0.38878,-0.0138 0.58243,0 0.35072,0.025 0.69999,0.069 1.04838,0.11649 2.60515,0.35525 0.52857,0.12385 2.44621,0.34946 0.3492,0.0411 0.6971,0.10121 1.04838,0.11648 0.85342,0.0371 1.70846,0 2.56269,0 1.79349,0 -0.0974,-0.0447 1.51432,0.11649 0.15455,0.0154 0.31063,0 0.46595,0 0.0777,0 0.15531,0 0.23297,0 0.0388,0 0.089,-0.0275 0.11649,0 0.0274,0.0275 0,0.0777 0,0.11648 0,0.0388 0,0.0777 0,0.11649"
         id="path34" /><path
         style="fill:none;stroke:#000000;stroke-width:1px;stroke-linecap:butt;stroke-linejoin:miter;stroke-opacity:1"
         d="m 298.08824,627.16182 c 2.02448,0.57842 -0.0495,0.0666 1.28135,0.23297 0.15886,0.0199 0.30626,0.10508 0.46594,0.11648 0.3873,0.0277 0.77718,-0.0215 1.16487,0 0.31256,0.0174 0.61945,0.097 0.93189,0.11649 0.31002,0.0194 0.62126,0 0.93189,0 0.77657,0 1.55314,0 2.32972,0 0.23297,0 0.46594,0 0.69892,0 0.19414,0 0.38978,-0.0241 0.58243,0 0.12184,0.0152 0.2279,0.0991 0.34946,0.11649 0.15375,0.022 0.31274,-0.0255 0.46594,0 0.0856,0.0143 0.14874,0.0954 0.23297,0.11648 0.0753,0.0188 0.15532,0 0.23298,0 0.0777,0 0.15531,0 0.23297,0"
         id="path35" /></g><path
       style="fill:#ffffff;stroke:#000000;stroke-width:0;stroke-linejoin:bevel;stroke-dasharray:none;stroke-opacity:0.0149573;paint-order:stroke markers fill"
       d="m 378.15239,714.72575 v -8.25372 h 1.29568 c 1.51833,0 2.04638,0.29204 2.32193,1.2842 0.22346,0.80458 0.22766,13.08556 0.005,13.88803 -0.27455,0.98838 -0.6649,1.211 -2.23928,1.27713 l -1.38308,0.0581 z"
       id="path37" /><path
       style="fill:#ffffff;stroke:#000000;stroke-width:0;stroke-linejoin:bevel;stroke-dasharray:none;stroke-opacity:0.0149573;paint-order:stroke markers fill"
       d="m 392.696,723.16107 c -0.20077,-0.0397 -0.54637,-0.28762 -0.76801,-0.55102 -0.56747,-0.6744 -0.6358,-1.75825 -0.56565,-8.97199 0.0643,-6.61345 0.0895,-6.79959 0.98127,-7.26076 0.57986,-0.29986 1.1875,-0.29828 1.77319,0.005 0.8956,0.46313 0.92107,0.69339 0.92107,8.32696 0,7.29784 -0.0402,7.76073 -0.71035,8.17925 -0.37201,0.23232 -1.16537,0.36506 -1.63152,0.27297 z"
       id="path38" /><path
       style="fill:#ffffff;stroke:#000000;stroke-width:0;stroke-linejoin:bevel;stroke-dasharray:none;stroke-opacity:0.0149573;paint-order:stroke markers fill"
       d="m 350.21564,718.37423 c 0.052,-0.24916 0.42336,-2.70263 0.82516,-5.45214 0.40179,-2.74952 0.7559,-5.02448 0.78689,-5.05547 0.0504,-0.0504 1.63247,10.53591 1.61955,10.83708 -0.003,0.068 -0.75251,0.12355 -1.66576,0.12355 h -1.66045 z"
       id="path39" /><path
       style="fill:#ffffff;stroke:#000000;stroke-width:0;stroke-linejoin:bevel;stroke-dasharray:none;stroke-opacity:0.0149573;paint-order:stroke markers fill"
       d="m 336.60927,640.15003 c 0.0803,-2.40253 0.19897,-4.89242 0.26384,-5.5331 0.0649,-0.64067 0.21529,-7.35016 0.33429,-14.90997 0.20192,-12.82818 0.24413,-13.76066 0.63273,-13.97834 0.73796,-0.41338 3.90543,-3.78677 5.51469,-5.87322 0.27586,-0.35765 0.62369,-0.75512 0.77296,-0.88325 0.14927,-0.12814 0.53062,-0.65386 0.84744,-1.16828 0.31681,-0.51442 0.74754,-1.07766 0.95717,-1.25163 0.20963,-0.17398 0.38115,-0.4548 0.38115,-0.62405 0,-0.16925 0.233,-0.47092 0.51778,-0.67039 0.41495,-0.29064 1.23622,-0.36233 4.13526,-0.36099 3.35127,0.002 5.14533,-0.10334 12.00449,-0.70189 2.53726,-0.22141 6.96776,-0.80225 7.9793,-1.04609 l 0.52419,-0.12635 v 13.1779 c 0,10.29704 -0.0736,13.67219 -0.33687,15.43887 -0.61103,4.10105 -0.86202,8.32631 -0.84264,14.18544 0.0105,3.17978 0.0799,6.11013 0.15429,6.5119 0.15966,0.8628 0.0417,0.95638 -1.58224,1.25516 -4.36666,0.80341 -6.89941,0.9228 -19.61583,0.92465 l -12.7879,0.002 z m 23.68261,-3.98559 c 0,-0.64388 -0.047,-0.67064 -1.43201,-0.8154 -0.7876,-0.0823 -2.85815,-0.15501 -4.6012,-0.16154 -1.74306,-0.007 -4.32241,-0.10248 -5.7319,-0.21324 -1.40948,-0.11076 -2.62954,-0.13164 -2.71124,-0.0464 -0.0817,0.0853 -0.21754,0.38375 -0.30187,0.66332 -0.13735,0.45531 -0.0467,0.52431 0.86952,0.6617 0.56257,0.0844 3.47661,0.2321 6.47565,0.3283 2.99903,0.0962 5.89835,0.19158 6.44292,0.21195 0.9425,0.0353 0.99013,0.005 0.99013,-0.6287 z m 2.03851,-14.6347 c 0.2883,-0.0694 0.52419,-0.25932 0.52419,-0.42194 0,-0.69894 -0.69952,-0.8733 -3.4349,-0.85621 -3.07067,0.0192 -10.99497,-0.57456 -12.03664,-0.90188 -0.53792,-0.16904 -0.74071,-0.13014 -0.98272,0.18848 -0.16772,0.22082 -0.30827,0.52227 -0.31235,0.6699 -0.0108,0.39033 1.27866,0.7776 2.6483,0.79539 0.65359,0.008 2.28913,0.15377 3.63455,0.32284 2.44894,0.30773 8.97328,0.44099 9.95957,0.20342 z m -5.49892,-11.25843 h 7.42094 v -0.69891 -0.69892 l -8.32876,0.003 c -4.58082,0.002 -8.56465,0.0664 -8.85295,0.14366 -0.39716,0.10643 -0.52419,0.3113 -0.52419,0.84541 v 0.70493 l 1.43201,-0.14967 c 0.7876,-0.0823 4.77143,-0.14968 8.85295,-0.14968 z"
       id="path40" /><g
       id="g76"
       transform="rotate(7.2881263,-1314.0193,5052.0583)"
       style="fill:#ffffff"><g
         id="g71"
         transform="matrix(-0.34350262,-0.31254599,0.27180628,-0.37656393,263.45452,666.2871)"
         style="fill:#ffffff"><rect
           style="fill:#ffffff;fill-opacity:1;stroke:#000000;stroke-width:0;stroke-linejoin:bevel;stroke-dasharray:none;stroke-opacity:0.0149573;paint-order:stroke markers fill"
           id="rect70"
           width="23.429176"
           height="262.40677"
           x="200.9052"
           y="468.58353" /><rect
           style="fill:#ffffff;fill-opacity:1;stroke:#000000;stroke-width:0;stroke-linejoin:bevel;stroke-dasharray:none;stroke-opacity:0.0149573;paint-order:stroke markers fill"
           id="rect71"
           width="23.429176"
           height="262.40677"
           x="-191.67174"
           y="733.4201"
           transform="rotate(-30)" /><circle
           style="fill:#ffffff;fill-opacity:1;stroke:#000000;stroke-width:0;stroke-linejoin:bevel;stroke-dasharray:none;stroke-opacity:0.0149573;paint-order:stroke markers fill"
           id="circle71"
           cx="359.63785"
           cy="985.19684"
           r="45.686893" /></g><g
         id="g73"
         transform="matrix(-0.34350262,-0.31254599,0.27180628,-0.37656393,232.06738,637.72859)"
         style="fill:#ffffff"><rect
           style="fill:#ffffff;fill-opacity:1;stroke:#000000;stroke-width:0;stroke-linejoin:bevel;stroke-dasharray:none;stroke-opacity:0.0149573;paint-order:stroke markers fill"
           id="rect72"
           width="23.429176"
           height="262.40677"
           x="200.9052"
           y="468.58353" /><rect
           style="fill:#ffffff;fill-opacity:1;stroke:#000000;stroke-width:0;stroke-linejoin:bevel;stroke-dasharray:none;stroke-opacity:0.0149573;paint-order:stroke markers fill"
           id="rect73"
           width="23.429176"
           height="262.40677"
           x="-191.67174"
           y="733.4201"
           transform="rotate(-30)" /><circle
           style="fill:#ffffff;fill-opacity:1;stroke:#000000;stroke-width:0;stroke-linejoin:bevel;stroke-dasharray:none;stroke-opacity:0.0149573;paint-order:stroke markers fill"
           id="circle73"
           cx="359.63785"
           cy="985.19684"
           r="45.686893" /></g><g
         id="g75"
         transform="matrix(-0.34350262,-0.31254599,0.27180628,-0.37656393,200.68024,609.17008)"
         style="fill:#ffffff"><rect
           style="fill:#ffffff;fill-opacity:1;stroke:#000000;stroke-width:0;stroke-linejoin:bevel;stroke-dasharray:none;stroke-opacity:0.0149573;paint-order:stroke markers fill"
           id="rect74"
           width="23.429176"
           height="262.40677"
           x="200.9052"
           y="468.58353" /><rect
           style="fill:#ffffff;fill-opacity:1;stroke:#000000;stroke-width:0;stroke-linejoin:bevel;stroke-dasharray:none;stroke-opacity:0.0149573;paint-order:stroke markers fill"
           id="rect75"
           width="23.429176"
           height="262.40677"
           x="-191.67174"
           y="733.4201"
           transform="rotate(-30)" /><circle
           style="fill:#ffffff;fill-opacity:1;stroke:#000000;stroke-width:0;stroke-linejoin:bevel;stroke-dasharray:none;stroke-opacity:0.0149573;paint-order:stroke markers fill"
           id="circle75"
           cx="359.63785"
           cy="985.19684"
           r="45.686893" /></g></g><rect
       style="fill:#000000;stroke:#000000;stroke-width:0;stroke-linejoin:bevel;stroke-dasharray:none;stroke-opacity:0.0149573;paint-order:stroke markers fill"
       id="rect40"
       width="224.04149"
       height="329.47278"
       x="677.39606"
       y="585.14368"
       ry="36.900951" /><rect
       style="fill:#ffffff;stroke:#000000;stroke-width:0;stroke-linejoin:bevel;stroke-dasharray:none;stroke-opacity:0.0149573;paint-order:stroke markers fill"
       id="rect41"
       width="158.14693"
       height="255.67087"
       x="711.66125"
       y="616.77307"
       ry="42.172516" /><rect
       style="fill:#ffffff;stroke:#000000;stroke-width:0;stroke-linejoin:bevel;stroke-dasharray:none;stroke-opacity:0.0149573;paint-order:stroke markers fill"
       id="rect42"
       width="22.31049"
       height="22.31049"
       x="779.41956"
       y="881.44305"
       ry="10.225641" /><text
       xml:space="preserve"
       style="font-style:normal;font-variant:normal;font-weight:normal;font-stretch:normal;font-size:20.6462px;line-height:1.25;font-family:'Bebas Neue';-inkscape-font-specification:'Bebas Neue, Normal ';font-variant-ligatures:normal;font-variant-caps:normal;font-variant-numeric:normal;font-variant-east-asian:normal;stroke-width:0.619388"
       x="755.96594"
       y="779.82947"
       id="text42"><tspan
         sodipodi:role="line"
         id="tspan42"
         x="755.96594"
         y="779.82947"
         style="stroke-width:0.619388">ENVIANDO...</tspan></text><rect
       style="fill:#000000;stroke:#000000;stroke-width:0;stroke-linejoin:bevel;stroke-dasharray:none;stroke-opacity:0.0149573;paint-order:stroke markers fill"
       id="rect43"
       width="110.9407"
       height="10.611718"
       x="735.3244"
       y="-750.61536"
       ry="2.9744978"
       transform="scale(1,-1)" /><rect
       style="fill:#00ff00;stroke:#000000;stroke-width:0;stroke-linejoin:bevel;stroke-dasharray:none;stroke-opacity:0.0149573;paint-order:stroke markers fill"
       id="rect44"
       width="80.391815"
       height="10.611718"
       x="735.03583"
       y="-750.61536"
       ry="2.9744978"
       transform="scale(1,-1)" /><g
       id="g47"
       transform="matrix(0.90328041,0,0,0.73330746,515.65432,263.56261)"><path
         style="fill:none;stroke:#000000;stroke-width:1px;stroke-linecap:butt;stroke-linejoin:miter;stroke-opacity:1"
         d="m 292.03096,601.76782 c 0.19414,-0.11649 0.39819,-0.21786 0.58243,-0.34946 0.38409,-0.27435 0.11292,-0.15057 0.34946,-0.46594 0.74563,-0.99418 -0.27969,0.52823 0.46594,-0.46595 0.0521,-0.0695 0.0644,-0.16351 0.11649,-0.23297 0.71331,-0.71331 -0.14735,0.19646 0.34946,-0.46595 0.0659,-0.0879 0.16436,-0.14721 0.23297,-0.23297 0.34348,-0.42935 0.1317,-0.21949 0.34946,-0.58243 0.57012,-0.9502 -0.0827,0.14911 0.46594,-0.58243 0.0521,-0.0695 0.0683,-0.16073 0.11649,-0.23297 0.0305,-0.0457 0.0777,-0.0777 0.11648,-0.11649 0.0388,-0.0777 0.0683,-0.16073 0.11649,-0.23297 0.0609,-0.0914 0.17205,-0.1416 0.23297,-0.23297 0.4223,-0.8446 -0.12278,0.18418 0.23298,-0.34946 0.0963,-0.14449 0.14363,-0.31705 0.23297,-0.46595 0.072,-0.12005 0.16094,-0.22941 0.23297,-0.34946 0.0447,-0.0744 0.0551,-0.17158 0.11649,-0.23297 0.0614,-0.0614 0.17158,-0.0551 0.23297,-0.11649 0.29423,-0.29423 0.0448,-0.13428 0.11649,-0.34945 0.0705,-0.21157 0.0997,-0.21619 0.23297,-0.34946 0.0388,-0.0388 0.086,-0.0708 0.11648,-0.11649 0.17856,-0.26784 0.0544,-0.31459 0.23298,-0.58243 0.0609,-0.0914 0.18385,-0.13474 0.23297,-0.23297 0.0174,-0.0347 -0.0174,-0.0818 0,-0.11649 0.0491,-0.0982 0.19824,-0.12878 0.23297,-0.23297 0.0246,-0.0737 -0.0246,-0.1593 0,-0.23297 0.0174,-0.0521 0.086,-0.0708 0.11649,-0.11649 0.22067,0.0133 0.0777,-0.2718 0.11648,-0.34946 0.0246,-0.0491 0.0919,-0.0674 0.11649,-0.11648 0.0174,-0.0347 -0.0174,-0.0818 0,-0.11649 0.0246,-0.0491 0.0919,-0.0674 0.11649,-0.11649 0.0174,-0.0347 -0.0275,-0.089 0,-0.11648 0.0275,-0.0275 0.089,0.0275 0.11648,0 0.0275,-0.0275 -0.0174,-0.0818 0,-0.11649 0.0246,-0.0491 0.0919,-0.0674 0.11649,-0.11649 0.0174,-0.0347 -0.0275,-0.089 0,-0.11648 0.0249,-0.0249 0.40172,0.0214 0.46594,0 0.0824,-0.0275 0.14784,-0.0995 0.23298,-0.11649 0.19037,-0.0381 0.38828,0 0.58243,0 0.31063,0 0.62126,0 0.93189,0 0.69891,0 1.39783,0 2.09675,0 0.2718,0 0.54495,0.027 0.8154,0 0.2732,-0.0273 0.54197,-0.0916 0.81541,-0.11648 0.15467,-0.0141 0.31183,0.0193 0.46594,0 0.15886,-0.0199 0.30709,-0.0966 0.46595,-0.11649 0.15411,-0.0193 0.31063,0 0.46594,0 0.19414,0 0.38979,0.0241 0.58243,0 0.12184,-0.0152 0.22834,-0.0963 0.34946,-0.11649 0.2298,-0.0383 0.46829,0.033 0.69892,0 0.15848,-0.0226 0.30746,-0.0938 0.46594,-0.11648 0.18305,-0.0262 0.60489,0 0.81541,0 0.0777,0 0.15609,0.011 0.23297,0 0.196,-0.028 0.38643,-0.0885 0.58243,-0.11649 0.15375,-0.022 0.31063,0 0.46594,0 0.62338,0 -0.26383,0.0246 0.58244,-0.11649 0.1915,-0.0319 0.39205,0.0381 0.58243,0 0.2408,-0.0482 0.45668,-0.1926 0.69891,-0.23297 0.11491,-0.0191 0.23369,0.0129 0.34946,0 0.23298,-0.0388 0.46595,-0.0777 0.69892,-0.11648 0.0777,-0.0388 0.14874,-0.0954 0.23297,-0.11649 0.15068,-0.0377 0.31527,0.0377 0.46595,0 0.0842,-0.0211 0.14783,-0.0995 0.23297,-0.11649 0.11422,-0.0228 0.23523,0.0229 0.34946,0 0.0851,-0.017 0.14874,-0.0954 0.23297,-0.11648 0.15068,-0.0377 0.3186,0.0491 0.46595,0 0.0521,-0.0174 0.0777,-0.0777 0.11648,-0.11649 0.0777,0 0.15683,0.0152 0.23297,0 0.12041,-0.0241 0.22835,-0.0963 0.34946,-0.11649 0.1149,-0.0192 0.23298,0 0.34946,0 0.0388,0 0.0818,0.0174 0.11649,0 0.0491,-0.0246 0.0674,-0.0919 0.11648,-0.11648 0.0888,-0.0444 0.20592,0.0353 0.23298,0.11648 0.0246,0.0737 0,0.15532 0,0.23298 0,0.23297 0,0.46594 0,0.69891 0,0.73775 0,1.4755 0,2.21324 0,2.36856 0,4.73711 0,7.10566 0,2.64036 0,5.28071 0,7.92106 0,0.85424 0,1.70847 0,2.5627 0,0.42712 0.0284,0.85518 0,1.28135 -0.0106,0.15974 -0.0966,0.30709 -0.11649,0.46595 -0.0385,0.30823 0.0385,0.62365 0,0.93188 -0.0199,0.15886 -0.0966,0.30709 -0.11649,0.46595 -0.0193,0.15412 0.0193,0.31183 0,0.46594 -0.0199,0.15886 -0.0988,0.30683 -0.11648,0.46595 -0.0214,0.19296 0.0214,0.38947 0,0.58243 -0.0177,0.15912 -0.0966,0.30709 -0.11649,0.46595 -0.0385,0.30823 0.0281,0.62253 0,0.93189 -0.0249,0.27343 -0.0862,0.54252 -0.11648,0.8154 -0.009,0.0772 0,0.15531 0,0.23297 0,0.2718 0.0226,0.54454 0,0.8154 -0.0165,0.19731 -0.0946,0.38566 -0.11649,0.58244 -0.0343,0.30873 0.0343,0.62316 0,0.93189 -0.0219,0.19677 -0.0946,0.38565 -0.11649,0.58243 -0.0172,0.15436 0,0.31063 0,0.46594 0,0.31063 0,0.62126 0,0.93189 0,0.15532 0.0141,0.31127 0,0.46595 -0.0249,0.27343 -0.0969,0.54154 -0.11648,0.8154 -0.0277,0.3873 0,0.77657 0,1.16486 0,0.93189 0,1.86378 0,2.79567 0,0.8154 0,1.63081 0,2.44621 0,0.23297 0,0.46595 0,0.69892 0,0.0777 0,0.15531 0,0.23297 0,0.0777 -0.0246,0.1593 0,0.23297 0.0174,0.0521 0.0919,0.0674 0.11648,0.11649 0.0174,0.0347 0,0.0777 0,0.11649 0,0.15531 0,0.31063 0,0.46594 0,0.0777 -0.0245,0.1593 0,0.23297 0.0174,0.0521 0.0991,0.0644 0.11649,0.11649 0.0368,0.11051 0,0.23297 0,0.34946 0,0.2718 0,0.5436 0,0.8154 0,0.0388 0.0275,0.089 0,0.11649 -0.0614,0.0614 -0.15236,0.0842 -0.23297,0.11648 -1.3674,0.54697 -0.45204,0.21336 -1.63081,0.46595 -0.31308,0.0671 -0.61718,0.17396 -0.93189,0.23297 -0.30769,0.0577 -0.62159,0.0751 -0.93189,0.11649 -0.27215,0.0363 -0.54403,0.0747 -0.8154,0.11648 -0.81829,0.1259 -1.61874,0.28051 -2.44621,0.34946 -0.11609,0.01 -0.23298,0 -0.34946,0 -0.50478,0 -1.00955,0 -1.51432,0 -1.04838,0 -2.09676,0 -3.14513,0 -2.91216,0 -5.82431,0 -8.73647,0 -1.04837,0 -2.09675,0 -3.14513,0 -0.0438,0 -0.57952,0.003 -0.58243,0 -0.0274,-0.0274 0,-0.0776 0,-0.11648 0,-0.0777 0,-0.15532 0,-0.23298 0,-0.5436 0,-1.0872 0,-1.6308 0,-1.04838 0,-2.09675 0,-3.14513 0,-0.31063 -0.0207,-0.62195 0,-0.93189 0.0183,-0.27395 0.0969,-0.54154 0.11649,-0.8154 0.0194,-0.27111 -0.0194,-0.5443 0,-0.81541 0.29255,-2.04787 -0.0198,0.41288 0.11649,-1.6308 0.0208,-0.31236 0.10445,-0.61908 0.11648,-0.93189 0.0269,-0.69841 0,-1.39784 0,-2.09676 0,-0.5436 0,-1.0872 0,-1.6308 0,-0.2718 0,-0.54361 0,-0.81541 0,-0.31063 -0.0207,-0.62194 0,-0.93189 0.0183,-0.27395 0.0954,-0.54165 0.11649,-0.8154 0.0179,-0.23229 0,-0.46594 0,-0.69892 0,-0.46594 0,-0.93189 0,-1.39783 0,-1.63081 0,-3.26162 0,-4.89242 0,-1.35901 0,-2.71802 0,-4.07702 0,-0.46595 0,-0.93189 0,-1.39784 0,-0.11648 0,-0.23297 0,-0.34945 0,-0.0777 -0.0128,-0.15638 0,-0.23298 0.0263,-0.15791 0.0938,-0.30746 0.11648,-0.46594 0.0165,-0.11532 0,-0.23297 0,-0.34946 0,-0.38829 0,-0.77658 0,-1.16486 0,-0.15532 -0.0255,-0.31275 0,-0.46595 0.0263,-0.15791 0.0902,-0.30803 0.11649,-0.46594 0.0128,-0.0766 0,-0.15532 0,-0.23297 0,-0.31063 0,-0.62126 0,-0.93189"
         id="path44" /><path
         style="fill:none;stroke:#000000;stroke-width:1px;stroke-linecap:butt;stroke-linejoin:miter;stroke-opacity:1"
         d="m 298.67067,605.49538 c 2.90632,0 -1.0644,0.0447 1.51432,-0.11649 0.38753,-0.0242 0.77658,0 1.16486,0 0.93189,0 1.86378,0 2.79567,0 2.21324,0 4.42648,0 6.63972,0"
         id="path45" /><path
         style="fill:none;stroke:#000000;stroke-width:1px;stroke-linecap:butt;stroke-linejoin:miter;stroke-opacity:1"
         d="m 298.55419,613.99887 c 0.23297,0.11649 0.44762,0.28093 0.69891,0.34946 0.18731,0.0511 0.38878,-0.0138 0.58243,0 0.35072,0.025 0.69999,0.069 1.04838,0.11649 2.60515,0.35525 0.52857,0.12385 2.44621,0.34946 0.3492,0.0411 0.6971,0.10121 1.04838,0.11648 0.85342,0.0371 1.70846,0 2.56269,0 1.79349,0 -0.0974,-0.0447 1.51432,0.11649 0.15455,0.0154 0.31063,0 0.46595,0 0.0777,0 0.15531,0 0.23297,0 0.0388,0 0.089,-0.0275 0.11649,0 0.0274,0.0275 0,0.0777 0,0.11648 0,0.0388 0,0.0777 0,0.11649"
         id="path46" /><path
         style="fill:none;stroke:#000000;stroke-width:1px;stroke-linecap:butt;stroke-linejoin:miter;stroke-opacity:1"
         d="m 298.08824,627.16182 c 2.02448,0.57842 -0.0495,0.0666 1.28135,0.23297 0.15886,0.0199 0.30626,0.10508 0.46594,0.11648 0.3873,0.0277 0.77718,-0.0215 1.16487,0 0.31256,0.0174 0.61945,0.097 0.93189,0.11649 0.31002,0.0194 0.62126,0 0.93189,0 0.77657,0 1.55314,0 2.32972,0 0.23297,0 0.46594,0 0.69892,0 0.19414,0 0.38978,-0.0241 0.58243,0 0.12184,0.0152 0.2279,0.0991 0.34946,0.11649 0.15375,0.022 0.31274,-0.0255 0.46594,0 0.0856,0.0143 0.14874,0.0954 0.23297,0.11648 0.0753,0.0188 0.15532,0 0.23298,0 0.0777,0 0.15531,0 0.23297,0"
         id="path47" /></g><path
       style="fill:#ffffff;stroke:#000000;stroke-width:0;stroke-linejoin:bevel;stroke-dasharray:none;stroke-opacity:0.0149573;paint-order:stroke markers fill"
       d="m 804.99243,772.62745 v -5.11225 h 0.80253 c 0.94044,0 1.2675,0.18089 1.43818,0.79542 0.1384,0.49834 0.14101,8.10503 0.003,8.60207 -0.17005,0.61219 -0.41183,0.75008 -1.38698,0.79104 l -0.85666,0.036 z"
       id="path48" /><path
       style="fill:#ffffff;stroke:#000000;stroke-width:0;stroke-linejoin:bevel;stroke-dasharray:none;stroke-opacity:0.0149573;paint-order:stroke markers fill"
       d="m 814.00057,777.85219 c -0.12436,-0.0246 -0.33842,-0.17815 -0.4757,-0.3413 -0.35148,-0.41771 -0.39381,-1.08904 -0.35036,-5.55714 0.0398,-4.09629 0.0554,-4.21158 0.60779,-4.49723 0.35916,-0.18573 0.73552,-0.18475 1.09829,0.003 0.55473,0.28686 0.5705,0.42948 0.5705,5.15762 0,4.52019 -0.0249,4.8069 -0.43998,5.06613 -0.23042,0.14389 -0.72182,0.22611 -1.01054,0.16907 z"
       id="path49" /><path
       style="fill:#ffffff;stroke:#000000;stroke-width:0;stroke-linejoin:bevel;stroke-dasharray:none;stroke-opacity:0.0149573;paint-order:stroke markers fill"
       d="m 787.68875,774.88728 c 0.0322,-0.15433 0.26222,-1.67398 0.51109,-3.37699 0.24887,-1.70302 0.4682,-3.1121 0.48739,-3.1313 0.0312,-0.0312 1.01114,6.52582 1.00313,6.71236 -0.002,0.0421 -0.46609,0.0765 -1.03175,0.0765 h -1.02846 z"
       id="path50" /><path
       style="fill:#ffffff;stroke:#000000;stroke-width:0;stroke-linejoin:bevel;stroke-dasharray:none;stroke-opacity:0.0149573;paint-order:stroke markers fill"
       d="m 779.26113,726.43616 c 0.0497,-1.4881 0.12324,-3.0303 0.16342,-3.42713 0.0402,-0.39683 0.13335,-4.5526 0.20706,-9.23506 0.12506,-7.94561 0.15121,-8.52318 0.3919,-8.65801 0.45708,-0.25604 2.41898,-2.34548 3.41573,-3.6378 0.17087,-0.22152 0.38631,-0.46771 0.47876,-0.54707 0.0925,-0.0794 0.32866,-0.405 0.5249,-0.72362 0.19623,-0.31863 0.46302,-0.66749 0.59286,-0.77525 0.12984,-0.10776 0.23608,-0.28169 0.23608,-0.38653 0,-0.10483 0.14431,-0.29168 0.3207,-0.41523 0.25702,-0.18002 0.7657,-0.22442 2.56133,-0.22359 2.07574,10e-4 3.18696,-0.064 7.43544,-0.43474 1.57155,-0.13714 4.31574,-0.49691 4.94228,-0.64794 l 0.32468,-0.0783 v 8.16223 c 0,6.37786 -0.0456,8.46839 -0.20866,9.56265 -0.37846,2.54014 -0.53392,5.15722 -0.52192,8.78629 0.007,1.96952 0.0495,3.78454 0.0956,4.03339 0.0989,0.53441 0.0258,0.59237 -0.98002,0.77743 -2.70466,0.49762 -4.27341,0.57157 -12.14981,0.57272 l -7.92067,0.001 z m 14.66872,-2.46862 c 0,-0.39882 -0.0291,-0.41539 -0.88697,-0.50505 -0.48783,-0.051 -1.7703,-0.096 -2.84993,-0.10006 -1.07963,-0.004 -2.67724,-0.0635 -3.55027,-0.13208 -0.87301,-0.0686 -1.6287,-0.0815 -1.6793,-0.0287 -0.0506,0.0528 -0.13475,0.23769 -0.18698,0.41086 -0.0851,0.28201 -0.0289,0.32475 0.53857,0.40984 0.34845,0.0523 2.15337,0.14376 4.01094,0.20335 1.85756,0.0596 3.65337,0.11866 3.99067,0.13128 0.58377,0.0219 0.61327,0.003 0.61327,-0.38941 z m 1.26263,-9.06456 c 0.17857,-0.043 0.32468,-0.16062 0.32468,-0.26134 0,-0.43292 -0.43328,-0.54091 -2.12754,-0.53033 -1.90194,0.0119 -6.81015,-0.35587 -7.45535,-0.55861 -0.33318,-0.1047 -0.45878,-0.0806 -0.60868,0.11674 -0.10389,0.13677 -0.19094,0.32349 -0.19347,0.41493 -0.007,0.24176 0.79199,0.48163 1.64033,0.49265 0.40482,0.005 1.41786,0.0953 2.25119,0.19997 1.51685,0.1906 5.55794,0.27314 6.16884,0.12599 z m -3.40597,-6.97333 h 4.59644 v -0.4329 -0.4329 l -5.15873,0.002 c -2.8373,0.001 -5.30484,0.0411 -5.48341,0.089 -0.24599,0.0659 -0.32467,0.19281 -0.32467,0.52363 v 0.43663 l 0.88697,-0.0927 c 0.48783,-0.051 2.95536,-0.0927 5.4834,-0.0927 z"
       id="path51" /><path
       style="fill:#ffffff;stroke:#000000;stroke-width:0;stroke-linejoin:bevel;stroke-dasharray:none;stroke-opacity:0.0149573;paint-order:stroke markers fill"
       d="m 188.24173,786.59731 c -3.42719,-1.52323 -6.53601,-4.80534 -7.85898,-8.29705 -0.68213,-1.80031 -0.99397,-34.81207 -0.99397,-105.22166 V 570.48029 l 2.29794,-3.92115 c 4.45519,-7.6022 -12.31281,-6.95933 181.52035,-6.95933 h 172.81987 l 3.11607,2.09991 c 1.71384,1.15496 3.97744,3.56622 5.03023,5.35837 1.89989,3.23415 1.91416,4.0297 1.91416,106.69821 v 103.43977 l -2.13189,3.42847 c -1.25144,2.01255 -3.77832,4.22548 -6.11853,5.35836 l -3.98664,1.9299 -171.40646,-0.0365 c -140.76113,-0.03 -171.90631,-0.25863 -174.20215,-1.27902 z M 398.1499,724.78113 c 0.73926,-0.96778 1.16487,-4.69447 1.16487,-10.19979 0,-9.5949 -1.37118,-12.4024 -6.05729,-12.4024 -4.68611,0 -6.05728,2.8075 -6.05728,12.4024 0,8.68765 0.71439,11.01264 3.72756,12.13129 2.12757,0.78987 5.91764,-0.22376 7.22214,-1.9315 z m -87.36466,-0.23683 c 0,-1.50878 -0.62127,-1.86378 -3.26162,-1.86378 -3.10629,0 -3.26161,-0.15532 -3.26161,-3.26162 0,-3.00275 0.22188,-3.26161 2.79567,-3.26161 2.17441,0 2.79567,-0.41417 2.79567,-1.86378 0,-1.44961 -0.62126,-1.86378 -2.79567,-1.86378 -2.48504,0 -2.79567,-0.31063 -2.79567,-2.79567 0,-2.57379 0.25886,-2.79567 3.26161,-2.79567 2.87482,0 3.26162,-0.28179 3.26162,-2.37623 0,-2.30394 -0.16301,-2.36772 -5.35837,-2.09675 l -5.35836,0.27948 -0.26082,11.88159 -0.26081,11.88159 h 5.61917 c 4.99792,0 5.61919,-0.20605 5.61919,-1.86377 z m 5.68146,-4.42648 0.0901,-6.29026 1.58271,6.05729 c 1.41572,5.41819 1.84866,6.08839 4.10339,6.35215 l 2.52066,0.29487 v -12.24128 c 0,-12.16163 -0.0136,-12.23934 -2.09675,-11.94349 -1.754,0.2491 -2.15526,0.98328 -2.4547,4.49129 l -0.35796,4.1935 -1.08444,-4.1935 c -0.97706,-3.7782 -1.35692,-4.1935 -3.83556,-4.1935 h -2.7511 l -0.26081,11.88159 -0.26081,11.88159 h 2.35756 c 2.28042,0 2.36051,-0.20584 2.44769,-6.29025 z m 20.57257,-3.96053 c 2.09063,-13.06725 2.08663,-13.97835 -0.0614,-13.97835 -2.19151,0 -2.54549,0.91379 -3.38283,8.73279 -0.36883,3.44405 -0.89806,6.03445 -1.17607,5.75644 -0.278,-0.27801 -0.96099,-3.54698 -1.51773,-7.26438 -0.88876,-5.93436 -1.26804,-6.79523 -3.10899,-7.05669 -2.53264,-0.35969 -2.52,-0.6908 -0.50199,13.15556 l 1.6023,10.99399 3.29062,-0.27725 3.29062,-0.27727 z m 7.294,-1.86378 v -12.11457 h -2.32972 -2.32973 v 12.11457 12.11456 h 2.32973 2.32972 z m 5.59134,10.25079 c 0,-1.20405 0.62126,-1.86378 1.75509,-1.86378 0.97137,0 1.97273,0.83225 2.24248,1.86378 0.40692,1.55605 1.27111,1.86377 5.23408,1.86377 h 4.74669 l 0.0901,-6.29025 0.0901,-6.29026 1.5827,6.05729 c 1.41573,5.41819 1.84867,6.08839 4.10339,6.35215 l 2.52067,0.29487 v -12.24128 c 0,-12.16163 -0.0136,-12.23934 -2.09675,-11.94349 -1.754,0.2491 -2.15526,0.98328 -2.4547,4.49129 l -0.35796,4.1935 -1.08445,-4.1935 c -0.97705,-3.7782 -1.35691,-4.1935 -3.83555,-4.1935 h -2.7511 l -0.35903,11.64862 -0.35904,11.64862 -1.97068,-11.64862 -1.9707,-11.64862 -2.94303,-0.28564 c -2.572,-0.24961 -3.01,0.0441 -3.47425,2.32973 -0.57051,2.80881 -3.36756,20.45303 -3.36756,21.24311 0,0.2618 1.04838,0.47598 2.32972,0.47598 1.70847,0 2.32973,-0.497 2.32973,-1.86377 z m 35.01788,-0.44508 c 1.1857,-1.8096 1.44223,-4.11704 1.18634,-10.6712 -0.18727,-4.79707 -0.79972,-8.83516 -1.43648,-9.47129 -0.6105,-0.60993 -3.23144,-1.31279 -5.82431,-1.56194 l -4.7143,-0.45298 v 12.23313 12.23313 h 4.63797 c 3.90766,0 4.87618,-0.36355 6.15078,-2.30885 z m 19.96361,0.44508 c 0,-1.36678 -0.62126,-1.86378 -2.32972,-1.86378 -1.70846,0 -2.32972,0.497 -2.32972,1.86378 0,1.36677 0.62126,1.86377 2.32972,1.86377 1.70846,0 2.32972,-0.497 2.32972,-1.86377 z m 6.52323,0 c 0,-1.36678 -0.62126,-1.86378 -2.32972,-1.86378 -1.70846,0 -2.32973,0.497 -2.32973,1.86378 0,1.36677 0.62127,1.86377 2.32973,1.86377 1.70846,0 2.32972,-0.497 2.32972,-1.86377 z m 5.59134,0 c 0,-1.36678 -0.62126,-1.86378 -2.32972,-1.86378 -1.70846,0 -2.32973,0.497 -2.32973,1.86378 0,1.36677 0.62127,1.86377 2.32973,1.86377 1.70846,0 2.32972,-0.497 2.32972,-1.86377 z m 26.45951,-46.48471 c 1.23901,-1.3691 1.52632,-3.15322 1.3093,-8.13029 -0.24995,-5.73175 -0.51356,-6.49506 -2.60778,-7.55117 -3.40209,-1.71565 -170.8613,-1.71565 -174.26339,0 -2.09423,1.05611 -2.35783,1.81942 -2.60778,7.55117 -0.47918,10.9885 -10.50438,9.88429 89.73947,9.88429 83.84753,0 86.89759,-0.0605 88.43018,-1.754 z m -72.1907,-33.21646 c 0.5765,-0.5765 1.21026,-11.45451 1.59658,-27.40419 l 0.6406,-26.44821 -3.64699,0.62594 c -2.00584,0.34426 -8.35826,0.89342 -14.11647,1.22034 -9.73893,0.55293 -10.57304,0.75244 -11.95339,2.85912 -0.81614,1.24559 -3.02416,3.96913 -4.9067,6.05232 l -3.42279,3.7876 -0.58461,19.66584 c -0.32153,10.8162 -0.37428,20.02458 -0.11722,20.46304 0.6652,1.13465 35.3349,0.35429 36.51099,-0.8218 z"
       id="path52" /><rect
       style="fill:#ffffff;stroke:#000000;stroke-width:0;stroke-linejoin:bevel;stroke-dasharray:none;stroke-opacity:0.0149573;paint-order:stroke markers fill"
       id="rect52"
       width="36.3437"
       height="10.250788"
       x="779.51208"
       y="594.70557"
       ry="5.1253939" /><text
       xml:space="preserve"
       style="font-style:normal;font-variant:normal;font-weight:normal;font-stretch:normal;font-size:83.1134px;line-height:1.25;font-family:'Bebas Neue';-inkscape-font-specification:'Bebas Neue, @wght=400';font-variant-ligatures:normal;font-variant-caps:normal;font-variant-numeric:normal;font-variant-east-asian:normal;font-variation-settings:'wght' 400;stroke-width:2.07783"
       x="801.50549"
       y="150.22739"
       id="text52"
       transform="scale(0.84037654,1.1899428)"><tspan
         sodipodi:role="line"
         id="tspan52"
         x="801.50549"
         y="150.22739"
         style="stroke-width:2.07783">HOSPEDAGEM</tspan></text><path
       style="font-variation-settings:'wght' 400;fill:#cccccc;stroke:#000000;stroke-width:0;stroke-linejoin:bevel;stroke-dasharray:none;stroke-opacity:0.0149573;paint-order:stroke markers fill"
       d="m 109.03658,948.19494 c -3.58477,-1.79229 -6.76646,-4.59697 -7.07043,-6.23261 -0.64699,-3.48145 64.88607,-106.85232 71.68445,-113.07398 l 4.61239,-4.22111 177.65967,0.49355 c 172.99902,0.4806 177.76476,0.58863 181.66453,4.11827 2.20267,1.9936 3.75826,5.012 3.45686,6.70756 -0.30139,1.69556 -15.18156,27.47289 -33.06704,57.28296 -21.54462,35.90882 -33.99663,54.87334 -36.89734,56.19499 -3.01185,1.37229 -59.17423,1.99398 -179.95181,1.99199 -163.42232,-0.003 -176.02461,-0.22843 -182.09128,-3.26162 z m 80.26817,-50.85527 c 4.37006,-2.33879 14.77911,-22.33585 14.77911,-28.3925 0,-2.38691 -1.00644,-5.34628 -2.23654,-6.57638 -2.32893,-2.32894 -28.53404,-3.18535 -33.94406,-1.10933 -3.62646,1.3916 -19.73279,26.88995 -19.73279,31.23948 0,1.74089 1.88708,3.92376 4.19351,4.85083 5.83362,2.34483 32.55315,2.33608 36.94077,-0.0121 z m 55.01812,-0.72264 c 2.08606,-1.46113 6.57899,-8.14578 9.9843,-14.85478 5.95287,-11.72809 6.07241,-12.37986 3.10214,-16.91308 -2.89355,-4.41611 -4.06801,-4.71491 -18.53227,-4.71491 -9.54881,0 -16.56149,0.88918 -18.3736,2.32972 -2.80855,2.23266 -18.31385,27.06589 -18.25482,29.23686 0.0566,2.08071 2.8233,5.17146 5.5628,6.21429 6.07786,2.31363 32.70665,1.36688 36.51145,-1.2981 z m 58.16764,-0.27349 c 4.326,-3.03006 15.2839,-22.84386 15.2839,-27.636 0,-6.39092 -5.45597,-8.57328 -21.43346,-8.57328 -17.72747,0 -17.7894,0.0368 -27.81894,16.54724 -11.35206,18.6875 -8.87996,22.44566 14.82372,22.53545 10.66193,0.0404 16.16364,-0.78535 19.14478,-2.87341 z m 57.8303,1.23785 c 1.73909,-0.93073 6.02537,-7.61117 9.52509,-14.84541 5.49246,-11.35349 6.06857,-13.79956 4.21055,-17.87745 -2.06779,-4.53832 -2.80156,-4.72427 -18.64161,-4.72427 -18.68644,0 -19.09111,0.24648 -29.87982,18.19985 -6.66704,11.09453 -7.37328,16.16679 -2.63522,18.92645 4.06375,2.36691 33.13221,2.61613 37.42101,0.32083 z m 59.89783,-1.97167 c 5.08256,-5.08257 13.1101,-21.4031 13.1101,-26.65374 0,-2.39176 -1.00644,-5.35509 -2.23653,-6.58519 -2.7624,-2.76241 -30.07673,-3.02851 -35.09667,-0.34192 -4.19401,2.24456 -18.58018,25.80117 -18.58018,30.42405 0,4.73165 6.51791,6.57007 23.76319,6.70257 12.90056,0.0991 15.96608,-0.47176 19.04009,-3.54577 z m 56.10815,1.72995 c 4.37008,-2.33879 14.77912,-22.33585 14.77912,-28.3925 0,-2.38691 -1.00644,-5.34628 -2.23654,-6.57638 -2.70613,-2.70614 -30.03072,-3.05313 -34.90728,-0.44328 -3.94439,2.11098 -18.76957,26.39325 -18.76957,30.74285 0,1.6477 1.88708,3.75434 4.19351,4.68141 5.83363,2.34483 32.55316,2.33608 36.94076,-0.0121 z"
       id="path76" /></g></svg>
